<?xml version="1.0" encoding="UTF-8"?>
<!DOCTYPE svg
PUBLIC "-//W3C//DTD SVG 1.1//EN"
       "http://www.w3.org/Graphics/SVG/1.1/DTD/svg11.dtd">
<svg viewBox="73 -8 1133 683" width="1060px" height="691px" xmlns="http://www.w3.org/2000/svg" version="1.1">
   <line x1="925" y1="253" x2="915" y2="253" style="stroke:#0bf;stroke-width:1;"/>
   <line x1="643" y1="495" x2="633" y2="495" style="stroke:#0bf;stroke-width:1;"/>
   <line x1="915" y1="253" x2="643" y2="495" style="stroke:#0bf;stroke-width:1;"/>
   <line x1="917.5" y1="253" x2="921.03553390593" y2="256.53553390593" style="stroke:#0bf;stroke-width:2;"/>
   <line x1="917.5" y1="253" x2="921.03553390593" y2="249.46446609407" style="stroke:#0bf;stroke-width:2;"/>
   <line x1="638" y1="495" x2="641.53553390593" y2="498.53553390593" style="stroke:#0bf;stroke-width:2;"/>
   <line x1="638" y1="495" x2="641.53553390593" y2="491.46446609407" style="stroke:#0bf;stroke-width:2;"/>
   <line x1="925" y1="273" x2="915" y2="273" style="stroke:#333;stroke-width:1;"/>
   <line x1="621" y1="37" x2="611" y2="37" style="stroke:#333;stroke-width:1;"/>
   <line x1="915" y1="273" x2="621" y2="37" style="stroke:#333;stroke-width:1;"/>
   <line x1="917.5" y1="273" x2="921.03553390593" y2="276.53553390593" style="stroke:#333;stroke-width:2;"/>
   <line x1="917.5" y1="273" x2="921.03553390593" y2="269.46446609407" style="stroke:#333;stroke-width:2;"/>
   <line x1="616" y1="37" x2="619.53553390593" y2="40.535533905933" style="stroke:#333;stroke-width:2;"/>
   <line x1="616" y1="37" x2="619.53553390593" y2="33.464466094067" style="stroke:#333;stroke-width:2;"/>
   <line x1="925" y1="313" x2="915" y2="313" style="stroke:#0b0;stroke-width:1;"/>
   <line x1="643" y1="495" x2="633" y2="495" style="stroke:#0b0;stroke-width:1;"/>
   <line x1="915" y1="313" x2="643" y2="495" style="stroke:#0b0;stroke-width:1;"/>
   <line x1="917.5" y1="313" x2="921.03553390593" y2="316.53553390593" style="stroke:#0b0;stroke-width:2;"/>
   <line x1="917.5" y1="313" x2="921.03553390593" y2="309.46446609407" style="stroke:#0b0;stroke-width:2;"/>
   <line x1="638" y1="495" x2="641.53553390593" y2="498.53553390593" style="stroke:#0b0;stroke-width:2;"/>
   <line x1="638" y1="495" x2="641.53553390593" y2="491.46446609407" style="stroke:#0b0;stroke-width:2;"/>
   <line x1="640" y1="351" x2="650" y2="351" style="stroke:#bbb;stroke-width:1;"/>
   <line x1="643" y1="495" x2="633" y2="495" style="stroke:#bbb;stroke-width:1;"/>
   <line x1="650" y1="351" x2="643" y2="495" style="stroke:#bbb;stroke-width:1;"/>
   <line x1="647.5" y1="351" x2="643.96446609407" y2="354.53553390593" style="stroke:#bbb;stroke-width:2;"/>
   <line x1="647.5" y1="351" x2="643.96446609407" y2="347.46446609407" style="stroke:#bbb;stroke-width:2;"/>
   <line x1="638" y1="495" x2="641.53553390593" y2="498.53553390593" style="stroke:#bbb;stroke-width:2;"/>
   <line x1="638" y1="495" x2="641.53553390593" y2="491.46446609407" style="stroke:#bbb;stroke-width:2;"/>
   <line x1="611" y1="77" x2="621" y2="77" style="stroke:#bbb;stroke-width:1;"/>
   <line x1="650" y1="271" x2="640" y2="271" style="stroke:#bbb;stroke-width:1;"/>
   <line x1="621" y1="77" x2="650" y2="271" style="stroke:#bbb;stroke-width:1;"/>
   <line x1="618.5" y1="77" x2="614.96446609407" y2="80.535533905933" style="stroke:#bbb;stroke-width:2;"/>
   <line x1="618.5" y1="77" x2="614.96446609407" y2="73.464466094067" style="stroke:#bbb;stroke-width:2;"/>
   <line x1="645" y1="271" x2="648.53553390593" y2="274.53553390593" style="stroke:#bbb;stroke-width:2;"/>
   <line x1="645" y1="271" x2="648.53553390593" y2="267.46446609407" style="stroke:#bbb;stroke-width:2;"/>
   <line x1="504" y1="97" x2="494" y2="97" style="stroke:#c00;stroke-width:1;"/>
   <line x1="191" y1="218" x2="181" y2="218" style="stroke:#c00;stroke-width:1;"/>
   <line x1="494" y1="97" x2="191" y2="218" style="stroke:#c00;stroke-width:1;"/>
   <line x1="496.5" y1="97" x2="500.03553390593" y2="100.53553390593" style="stroke:#c00;stroke-width:2;"/>
   <line x1="496.5" y1="97" x2="500.03553390593" y2="93.464466094067" style="stroke:#c00;stroke-width:2;"/>
   <line x1="186" y1="218" x2="189.53553390593" y2="221.53553390593" style="stroke:#c00;stroke-width:2;"/>
   <line x1="186" y1="218" x2="189.53553390593" y2="214.46446609407" style="stroke:#c00;stroke-width:2;"/>
   <line x1="181" y1="238" x2="191" y2="238" style="stroke:#0bf;stroke-width:1;"/>
   <line x1="544" y1="271" x2="554" y2="271" style="stroke:#0bf;stroke-width:1;"/>
   <line x1="191" y1="238" x2="544" y2="271" style="stroke:#0bf;stroke-width:1;"/>
   <line x1="188.5" y1="238" x2="184.96446609407" y2="241.53553390593" style="stroke:#0bf;stroke-width:2;"/>
   <line x1="188.5" y1="238" x2="184.96446609407" y2="234.46446609407" style="stroke:#0bf;stroke-width:2;"/>
   <line x1="549" y1="271" x2="545.46446609407" y2="274.53553390593" style="stroke:#0bf;stroke-width:2;"/>
   <line x1="549" y1="271" x2="545.46446609407" y2="267.46446609407" style="stroke:#0bf;stroke-width:2;"/>
   <line x1="984" y1="598" x2="974" y2="598" style="stroke:#333;stroke-width:1;"/>
   <line x1="643" y1="495" x2="633" y2="495" style="stroke:#333;stroke-width:1;"/>
   <line x1="974" y1="598" x2="643" y2="495" style="stroke:#333;stroke-width:1;"/>
   <line x1="976.5" y1="598" x2="980.03553390593" y2="601.53553390593" style="stroke:#333;stroke-width:2;"/>
   <line x1="976.5" y1="598" x2="980.03553390593" y2="594.46446609407" style="stroke:#333;stroke-width:2;"/>
   <line x1="638" y1="495" x2="641.53553390593" y2="498.53553390593" style="stroke:#333;stroke-width:2;"/>
   <line x1="638" y1="495" x2="641.53553390593" y2="491.46446609407" style="stroke:#333;stroke-width:2;"/>
   <rect width="133" height="20" x="925" y="183" style="fill:#007;stroke:black;"/>
   <text width="133" height="20" x="930" y="197" style="fill:#fff;" font-family="Arial" font-size="16px"> answers</text>
   <rect width="133" height="20" x="925" y="203" style="fill:#aea;stroke:black;"/>
   <text width="133" height="20" x="930" y="217" style="fill:black;" font-family="Arial" font-size="16px">id</text>
   <rect width="133" height="20" x="925" y="223" style="fill:none;stroke:black;"/>
   <text width="133" height="20" x="930" y="237" style="fill:black;" font-family="Arial" font-size="16px">uuid</text>
   <rect width="133" height="20" x="925" y="243" style="fill:none;stroke:black;"/>
   <text width="133" height="20" x="930" y="257" style="fill:black;" font-family="Arial" font-size="16px">user_id</text>
   <rect width="133" height="20" x="925" y="263" style="fill:none;stroke:black;"/>
   <text width="133" height="20" x="930" y="277" style="fill:black;" font-family="Arial" font-size="16px">form_element_id</text>
   <rect width="133" height="20" x="925" y="283" style="fill:none;stroke:black;"/>
   <text width="133" height="20" x="930" y="297" style="fill:black;" font-family="Arial" font-size="16px">answer</text>
   <rect width="133" height="20" x="925" y="303" style="fill:none;stroke:black;"/>
   <text width="133" height="20" x="930" y="317" style="fill:black;" font-family="Arial" font-size="16px">evaluated_user_id</text>
   <rect width="133" height="20" x="925" y="323" style="fill:none;stroke:black;"/>
   <text width="133" height="20" x="930" y="337" style="fill:black;" font-family="Arial" font-size="16px">created_at</text>
   <rect width="133" height="20" x="925" y="343" style="fill:none;stroke:black;"/>
   <text width="133" height="20" x="930" y="357" style="fill:black;" font-family="Arial" font-size="16px">updated_at</text>
   <rect width="86" height="20" x="554" y="241" style="fill:#007;stroke:black;"/>
   <text width="86" height="20" x="559" y="255" style="fill:#fff;" font-family="Arial" font-size="16px"> forms</text>
   <rect width="86" height="20" x="554" y="261" style="fill:#aea;stroke:black;"/>
   <text width="86" height="20" x="559" y="275" style="fill:black;" font-family="Arial" font-size="16px">id</text>
   <rect width="86" height="20" x="554" y="281" style="fill:none;stroke:black;"/>
   <text width="86" height="20" x="559" y="295" style="fill:black;" font-family="Arial" font-size="16px">uuid</text>
   <rect width="86" height="20" x="554" y="301" style="fill:none;stroke:black;"/>
   <text width="86" height="20" x="559" y="315" style="fill:black;" font-family="Arial" font-size="16px">type</text>
   <rect width="86" height="20" x="554" y="321" style="fill:none;stroke:black;"/>
   <text width="86" height="20" x="559" y="335" style="fill:black;" font-family="Arial" font-size="16px">course_id</text>
   <rect width="86" height="20" x="554" y="341" style="fill:none;stroke:black;"/>
   <text width="86" height="20" x="559" y="355" style="fill:black;" font-family="Arial" font-size="16px">user_id</text>
   <rect width="86" height="20" x="554" y="361" style="fill:none;stroke:black;"/>
   <text width="86" height="20" x="559" y="375" style="fill:black;" font-family="Arial" font-size="16px">created_at</text>
   <rect width="86" height="20" x="554" y="381" style="fill:none;stroke:black;"/>
   <text width="86" height="20" x="559" y="395" style="fill:black;" font-family="Arial" font-size="16px">updated_at</text>
   <rect width="107" height="20" x="504" y="7" style="fill:#007;stroke:black;"/>
   <text width="107" height="20" x="509" y="21" style="fill:#fff;" font-family="Arial" font-size="16px"> form_elements</text>
   <rect width="107" height="20" x="504" y="27" style="fill:#aea;stroke:black;"/>
   <text width="107" height="20" x="509" y="41" style="fill:black;" font-family="Arial" font-size="16px">id</text>
   <rect width="107" height="20" x="504" y="47" style="fill:none;stroke:black;"/>
   <text width="107" height="20" x="509" y="61" style="fill:black;" font-family="Arial" font-size="16px">uuid</text>
   <rect width="107" height="20" x="504" y="67" style="fill:none;stroke:black;"/>
   <text width="107" height="20" x="509" y="81" style="fill:black;" font-family="Arial" font-size="16px">form_id</text>
   <rect width="107" height="20" x="504" y="87" style="fill:none;stroke:black;"/>
   <text width="107" height="20" x="509" y="101" style="fill:black;" font-family="Arial" font-size="16px">group_id</text>
   <rect width="107" height="20" x="504" y="107" style="fill:none;stroke:black;"/>
   <text width="107" height="20" x="509" y="121" style="fill:black;" font-family="Arial" font-size="16px">type</text>
   <rect width="107" height="20" x="504" y="127" style="fill:none;stroke:black;"/>
   <text width="107" height="20" x="509" y="141" style="fill:black;" font-family="Arial" font-size="16px">ordering</text>
   <rect width="107" height="20" x="504" y="147" style="fill:none;stroke:black;"/>
   <text width="107" height="20" x="509" y="161" style="fill:black;" font-family="Arial" font-size="16px">created_at</text>
   <rect width="107" height="20" x="504" y="167" style="fill:none;stroke:black;"/>
   <text width="107" height="20" x="509" y="181" style="fill:black;" font-family="Arial" font-size="16px">updated_at</text>
   <rect width="93" height="20" x="88" y="188" style="fill:#007;stroke:black;"/>
   <text width="93" height="20" x="93" y="202" style="fill:#fff;" font-family="Arial" font-size="16px"> form_groups</text>
   <rect width="93" height="20" x="88" y="208" style="fill:#aea;stroke:black;"/>
   <text width="93" height="20" x="93" y="222" style="fill:black;" font-family="Arial" font-size="16px">id</text>
   <rect width="93" height="20" x="88" y="228" style="fill:none;stroke:black;"/>
   <text width="93" height="20" x="93" y="242" style="fill:black;" font-family="Arial" font-size="16px">form_id</text>
   <rect width="93" height="20" x="88" y="248" style="fill:none;stroke:black;"/>
   <text width="93" height="20" x="93" y="262" style="fill:black;" font-family="Arial" font-size="16px">data</text>
   <rect width="93" height="20" x="88" y="268" style="fill:none;stroke:black;"/>
   <text width="93" height="20" x="93" y="282" style="fill:black;" font-family="Arial" font-size="16px">created_at</text>
   <rect width="93" height="20" x="88" y="288" style="fill:none;stroke:black;"/>
   <text width="93" height="20" x="93" y="302" style="fill:black;" font-family="Arial" font-size="16px">updated_at</text>
   <rect width="134" height="20" x="984" y="508" style="fill:#007;stroke:black;"/>
   <text width="134" height="20" x="989" y="522" style="fill:#fff;" font-family="Arial" font-size="16px"> members</text>
   <rect width="134" height="20" x="984" y="528" style="fill:#aea;stroke:black;"/>
   <text width="134" height="20" x="989" y="542" style="fill:black;" font-family="Arial" font-size="16px">id</text>
   <rect width="134" height="20" x="984" y="548" style="fill:none;stroke:black;"/>
   <text width="134" height="20" x="989" y="562" style="fill:black;" font-family="Arial" font-size="16px">memberable_type</text>
   <rect width="134" height="20" x="984" y="568" style="fill:none;stroke:black;"/>
   <text width="134" height="20" x="989" y="582" style="fill:black;" font-family="Arial" font-size="16px">memberable_id</text>
   <rect width="134" height="20" x="984" y="588" style="fill:none;stroke:black;"/>
   <text width="134" height="20" x="989" y="602" style="fill:black;" font-family="Arial" font-size="16px">user_id</text>
   <rect width="134" height="20" x="984" y="608" style="fill:none;stroke:black;"/>
   <text width="134" height="20" x="989" y="622" style="fill:black;" font-family="Arial" font-size="16px">deleted_at</text>
   <rect width="134" height="20" x="984" y="628" style="fill:none;stroke:black;"/>
   <text width="134" height="20" x="989" y="642" style="fill:black;" font-family="Arial" font-size="16px">created_at</text>
   <rect width="134" height="20" x="984" y="648" style="fill:none;stroke:black;"/>
   <text width="134" height="20" x="989" y="662" style="fill:black;" font-family="Arial" font-size="16px">updated_at</text>
   <rect width="132" height="20" x="501" y="465" style="fill:#007;stroke:black;"/>
   <text width="132" height="20" x="506" y="479" style="fill:#fff;" font-family="Arial" font-size="16px"> users</text>
   <rect width="132" height="20" x="501" y="485" style="fill:#aea;stroke:black;"/>
   <text width="132" height="20" x="506" y="499" style="fill:black;" font-family="Arial" font-size="16px">id</text>
   <rect width="132" height="20" x="501" y="505" style="fill:none;stroke:black;"/>
   <text width="132" height="20" x="506" y="519" style="fill:black;" font-family="Arial" font-size="16px">name</text>
   <rect width="132" height="20" x="501" y="525" style="fill:none;stroke:black;"/>
   <text width="132" height="20" x="506" y="539" style="fill:black;" font-family="Arial" font-size="16px">email</text>
   <rect width="132" height="20" x="501" y="545" style="fill:none;stroke:black;"/>
   <text width="132" height="20" x="506" y="559" style="fill:black;" font-family="Arial" font-size="16px">mobile_prefix</text>
   <rect width="132" height="20" x="501" y="565" style="fill:none;stroke:black;"/>
   <text width="132" height="20" x="506" y="579" style="fill:black;" font-family="Arial" font-size="16px">mobile</text>
   <rect width="132" height="20" x="501" y="585" style="fill:none;stroke:black;"/>
   <text width="132" height="20" x="506" y="599" style="fill:black;" font-family="Arial" font-size="16px">email_verified_at</text>
   <rect width="132" height="20" x="501" y="605" style="fill:none;stroke:black;"/>
   <text width="132" height="20" x="506" y="619" style="fill:black;" font-family="Arial" font-size="16px">mobile_verified_at</text>
   <rect width="132" height="20" x="501" y="625" style="fill:none;stroke:black;"/>
   <text width="132" height="20" x="506" y="639" style="fill:black;" font-family="Arial" font-size="16px">created_at</text>
   <rect width="132" height="20" x="501" y="645" style="fill:none;stroke:black;"/>
   <text width="132" height="20" x="506" y="659" style="fill:black;" font-family="Arial" font-size="16px">updated_at</text>
</svg>
